<!--<svg version="1.1"
    xmlns="http://www.w3.org/2000/svg" width="400" height="400">
    <defs>
        <style>.cls-1{fill:#0b36a8;}.cls-2{fill:#fff;}</style>
    </defs>
    <ellipse class="cls-1" cx="100.000" cy="100" rx="100.000" ry="100"/>
    <path class="cls-2" d="M29.02734375,116.7890625l-11.51171875,0l0-19.98828125l11.51171875,0l0,3.47265625l-7.2734375,0l0,4.388671875l6.767578125,0l0,3.47265625l-6.767578125,0l0,5.154296875l7.2734375,0l0,3.5z M38.96365234375,116.7890625l-4.169921875,0l0-21.2734375l4.169921875,0l0,21.2734375z M45.0855078125,97.552734375q0-2.037109375,2.26953125-2.037109375t2.26953125,2.037109375q0,0.970703125-0.5673828125,1.5107421875t-1.7021484375,0.5400390625q-2.26953125,0-2.26953125-2.05078125z M49.4331640625,116.7890625l-4.169921875,0l0-15.28515625l4.169921875,0l0,15.28515625z M60.57259765625,117.0625q-2.693359375,0-4.2314453125-2.091796875t-1.5380859375-5.796875q0-3.759765625,1.5654296875-5.8583984375t4.3134765625-2.0986328125q2.884765625,0,4.40234375,2.2421875l0.13671875,0q-0.314453125-1.708984375-0.314453125-3.048828125l0-4.89453125l4.18359375,0l0,21.2734375l-3.19921875,0l-0.806640625-1.982421875l-0.177734375,0q-1.421875,2.255859375-4.333984375,2.255859375z M62.03548828125,113.740234375q1.599609375,0,2.3447265625-0.9296875t0.8134765625-3.158203125l0-0.451171875q0-2.4609375-0.7587890625-3.52734375t-2.4677734375-1.06640625q-1.39453125,0-2.1669921875,1.1826171875t-0.7724609375,3.4384765625t0.779296875,3.3837890625t2.228515625,1.1279296875z M81.706171875,104.18359375q-1.326171875,0-2.078125,0.8408203125t-0.861328125,2.3857421875l5.8515625,0q-0.02734375-1.544921875-0.806640625-2.3857421875t-2.10546875-0.8408203125z M82.2940625,117.0625q-3.69140625,0-5.76953125-2.037109375t-2.078125-5.76953125q0-3.841796875,1.9208984375-5.9404296875t5.3115234375-2.0986328125q3.240234375,0,5.044921875,1.845703125t1.8046875,5.099609375l0,2.0234375l-9.857421875,0q0.068359375,1.77734375,1.052734375,2.775390625t2.76171875,0.998046875q1.380859375,0,2.611328125-0.287109375t2.5703125-0.916015625l0,3.2265625q-1.09375,0.546875-2.337890625,0.8134765625t-3.03515625,0.2666015625z"/>
    <path class="cls-2" d=""/>
</svg> -->
<svg xmlns="http://www.w3.org/2000/svg"  viewBox="0 0 100 100">
  <circle cx="50" cy="50" r="45" stroke="black" stroke-width="3" fill="#0b36a8" />
</svg>

